<svg xmlns="http://www.w3.org/2000/svg" width="54.252" height="54.252" viewBox="0 0 54.252 54.252"><defs><style>.a{fill:#0076a2;}</style></defs><g transform="translate(2.625)"><path class="a" d="M74.175,40.152l-5.617-3.183V31.4a1.06,1.06,0,0,0-2.119,0v4.368l-2.464-1.4a1.06,1.06,0,0,0-1.045,1.844l2.488,1.41-15.086,8.71V39.584A12.5,12.5,0,0,0,60.591,21.815l5.848-3.376v4.343a1.06,1.06,0,0,0,2.119,0V16.6a1.06,1.06,0,0,0-.53-.918L50.333,5.469V1.06a1.06,1.06,0,1,0-2.119,0v4.41l-17.7,10.216a1.06,1.06,0,0,0-.53.918v6.5a1.06,1.06,0,0,0,2.119,0V18.441l5.843,3.385A12.5,12.5,0,0,0,48.214,39.584v6.751L33.178,37.654l1.608-.932a1.06,1.06,0,1,0-1.063-1.833l-1.616.937V30.834a1.06,1.06,0,1,0-2.119,0v6.22L25.3,39.772a1.06,1.06,0,1,0,1.063,1.833l4.7-2.725,17.68,10.208a1.059,1.059,0,0,0,1.06,0l17.755-10.25L73.13,42a1.06,1.06,0,1,0,1.045-1.844ZM33.166,16.6,48.214,7.917V11.23a1.06,1.06,0,1,0,2.119,0V7.917L65.379,16.6l-5.851,3.378a12.492,12.492,0,0,0-20.517.009ZM49.273,37.51A10.384,10.384,0,1,1,59.657,27.126,10.4,10.4,0,0,1,49.273,37.51Z" transform="translate(-24.772)"/></g><g transform="translate(52.132 26.066)"><path class="a" d="M493.809,246.31a1.059,1.059,0,1,0,.311.749A1.067,1.067,0,0,0,493.809,246.31Z" transform="translate(-492 -246)"/></g><g transform="translate(48.154 26.066)"><path class="a" d="M456.259,246.31a1.059,1.059,0,1,0,.311.749A1.065,1.065,0,0,0,456.259,246.31Z" transform="translate(-454.45 -246)"/></g><g transform="translate(44.291 26.066)"><path class="a" d="M419.809,246.31a1.059,1.059,0,1,0,.311.749A1.067,1.067,0,0,0,419.809,246.31Z" transform="translate(-418 -246)"/></g><g transform="translate(7.841 26.066)"><path class="a" d="M75.809,246.31a1.059,1.059,0,1,0,.311.749A1.067,1.067,0,0,0,75.809,246.31Z" transform="translate(-74 -246)"/></g><g transform="translate(3.862 26.066)"><path class="a" d="M38.26,246.31a1.059,1.059,0,1,0,.31.749A1.07,1.07,0,0,0,38.26,246.31Z" transform="translate(-36.45 -246)"/></g><g transform="translate(0 26.066)"><path class="a" d="M1.809,246.31a1.059,1.059,0,0,0-1.5,0,1.06,1.06,0,0,0,.749,1.809,1.059,1.059,0,0,0,.749-1.809Z" transform="translate(0 -246)"/></g><g transform="translate(19.364 22.04)"><path class="a" d="M187.1,211.045l1.237-1.237a1.06,1.06,0,0,0-.749-1.809h-3.479a1.06,1.06,0,1,0,0,2.119h.921l-1.158,1.158a1.06,1.06,0,0,0,.749,1.809h1.731a1.483,1.483,0,1,1-1.483,1.483,1.06,1.06,0,1,0-2.119,0,3.6,3.6,0,1,0,4.352-3.524Z" transform="translate(-182.746 -207.999)"/></g><g transform="translate(27.683 22.04)"><path class="a" d="M263.374,208h-1.06a1.06,1.06,0,0,0-1.06,1.06v8.053a1.06,1.06,0,0,0,1.06,1.06h1.059a5.086,5.086,0,0,0,0-10.172Zm0,8.053v-5.934a2.967,2.967,0,0,1,0,5.934Z" transform="translate(-261.255 -207.999)"/></g><path class="a" d="M8.907,0H1.06A1.06,1.06,0,0,0,0,1.06V8.907a1.06,1.06,0,0,0,2.119,0V2.119H8.907A1.06,1.06,0,1,0,8.907,0Z"/><g transform="translate(44.285)"><path class="a" d="M426.844,0H419a1.06,1.06,0,1,0,0,2.119h6.788V8.907a1.06,1.06,0,1,0,2.119,0V1.06A1.06,1.06,0,0,0,426.844,0Z" transform="translate(-417.937)"/></g><g transform="translate(44.285 44.285)"><path class="a" d="M426.844,417.937a1.06,1.06,0,0,0-1.06,1.06v6.788H419a1.06,1.06,0,1,0,0,2.119h7.848a1.06,1.06,0,0,0,1.06-1.06V419A1.06,1.06,0,0,0,426.844,417.937Z" transform="translate(-417.937 -417.937)"/></g><g transform="translate(0 44.285)"><path class="a" d="M8.907,425.785H2.119V419A1.06,1.06,0,1,0,0,419v7.848a1.06,1.06,0,0,0,1.06,1.06H8.907a1.06,1.06,0,1,0,0-2.119Z" transform="translate(0 -417.937)"/></g></svg>