<svg xmlns="http://www.w3.org/2000/svg" width="48.217" height="48.216" viewBox="0 0 48.217 48.216"><defs><style>.a{fill:#0076a2;}</style></defs><g transform="translate(0 -0.008)"><g transform="translate(14.124 0.008)"><path class="a" d="M180.117.008H150.923a.942.942,0,0,0,0,1.883H176.75a3.93,3.93,0,0,0-.588,2.072V16.3a.942.942,0,1,0,1.883,0V13.38h5.085a.942.942,0,0,0,.942-.942V3.963A3.96,3.96,0,0,0,180.117.008ZM182.189,11.5h-4.144V3.963a2.072,2.072,0,1,1,4.143,0V11.5Z" transform="translate(-149.981 -0.008)"/></g><g transform="translate(2.32 16.518)"><path class="a" d="M69.505,197.186l-6.151-6.151a10.923,10.923,0,1,0-20.015-.883l-1.1,1.1L37.7,186.72a.942.942,0,0,0-1.332,0l-1.06,1.06v-8.6a.942.942,0,0,0-1.883,0v10.483l-8.515,8.515a.942.942,0,1,0,1.332,1.332l7.183-7.183v6.787H29.285a.942.942,0,0,0-.942.942v3.013a3.96,3.96,0,0,0,3.955,3.955H60.551a3.96,3.96,0,0,0,3.955-3.955v-.808a3.5,3.5,0,0,0,2.455.991h.018a3.565,3.565,0,0,0,2.527-6.066ZM53.539,177.2A9.04,9.04,0,1,1,45.6,190.558l5.442-5.442v2.137a.942.942,0,1,0,1.883,0v-4.52a.942.942,0,0,0-.942-.942h-4.52a.942.942,0,0,0,0,1.883h2.356l-4.989,4.989A9.042,9.042,0,0,1,53.539,177.2ZM32.3,205.141a2.074,2.074,0,0,1-2.072-2.072V201H56.6v1.13c0,.031,0,.061,0,.091s0,.06,0,.091v.759a3.93,3.93,0,0,0,.588,2.072H32.3Zm30.324-2.072a2.072,2.072,0,1,1-4.144,0v-.759c0-.031,0-.061,0-.091s0-.06,0-.091v-2.072a.942.942,0,0,0-.942-.942H35.311v-8.67l1.726-1.726,4.534,4.534a.942.942,0,0,0,1.332,0l1.317-1.317a10.916,10.916,0,0,0,14.091,4.132l4.312,4.312Zm5.533-2.195a1.678,1.678,0,0,1-1.187.494h-.008a1.629,1.629,0,0,1-1.162-.476l-5.827-5.827a11.018,11.018,0,0,0,2.377-2.372l5.825,5.825A1.668,1.668,0,0,1,68.156,200.874Z" transform="translate(-24.637 -175.318)"/></g><g transform="translate(30.28 26.5)"><path class="a" d="M328.437,281.315a.942.942,0,0,0-.942.942,5.026,5.026,0,0,1-5.021,5.021.942.942,0,0,0,0,1.884,6.912,6.912,0,0,0,6.9-6.9A.942.942,0,0,0,328.437,281.315Z" transform="translate(-321.533 -281.315)"/></g><g transform="translate(0 5.093)"><path class="a" d="M24.12,65.118h-.86v-6.31a.942.942,0,0,0-.942-.942H17.994a.942.942,0,0,0-.942.942v6.31H15.538V54.948a.942.942,0,0,0-.942-.942H10.453a.942.942,0,0,0-.942.942v10.17H8V60.975a.942.942,0,0,0-.942-.942H2.919a.942.942,0,0,0-.942.942v4.144H.942A.942.942,0,1,0,.942,67H24.12a.942.942,0,1,0,0-1.883Zm-18,0H3.861v-3.2h2.26Zm7.534,0h-2.26V55.889h2.26Zm7.722,0H18.936V59.751h2.441Z" transform="translate(0 -54.006)"/></g><g transform="translate(23.543 5.093)"><path class="a" d="M258.228,54.006h-7.295a.942.942,0,0,0,0,1.883h7.295a.942.942,0,1,0,0-1.883Z" transform="translate(-249.992 -54.006)"/></g><g transform="translate(35.496 5.093)"><path class="a" d="M378.525,54.281a.941.941,0,1,0,.276.666A.949.949,0,0,0,378.525,54.281Z" transform="translate(-376.917 -54.005)"/></g><g transform="translate(25.646 9.237)"><path class="a" d="M274.81,98h-1.544a.942.942,0,0,0,0,1.883h1.544a.942.942,0,0,0,0-1.883Z" transform="translate(-272.324 -98.005)"/></g><g transform="translate(30.838 9.237)"><path class="a" d="M333.051,98h-4.658a.942.942,0,0,0,0,1.883h4.658a.942.942,0,0,0,0-1.883Z" transform="translate(-327.451 -98.005)"/></g><g transform="translate(0.001 41.422)"><path class="a" d="M1.617,440.039a.941.941,0,1,0,.276.666A.949.949,0,0,0,1.617,440.039Z" transform="translate(-0.009 -439.763)"/></g></g></svg>