<svg xmlns="http://www.w3.org/2000/svg" width="100.586" height="151.211" viewBox="0 0 100.586 151.211"><defs><style>.a,.b,.c,.d{fill:none;stroke:#e4e3e3;stroke-miterlimit:10;}.a{stroke-width:0.798px;opacity:0.6;}.b{stroke-width:0.798px;}.c{stroke-width:0.798px;}.d{stroke-width:0.798px;}</style></defs><g transform="translate(50.293 75.605)"><g transform="translate(-49.729 -75.041)"><rect class="a" width="34.974" height="35.006" transform="translate(58.681 125.351) rotate(135)"/><rect class="b" width="7.905" height="7.905" transform="translate(62.28 105.001) rotate(45)"/><rect class="b" width="5.11" height="5.078" transform="translate(3.591 132.516) rotate(45)"/><path class="c" d="M3.817,46.625a1.118,1.118,0,0,1,1.517,0l36.81,36.73a1.118,1.118,0,0,1,0,1.517L3.817,123.28a1.118,1.118,0,0,1-1.517,0" transform="translate(-1.04 -9.934)"/><rect class="d" width="28.266" height="28.234" transform="translate(99.457 67.874) rotate(135)"/><rect class="b" width="10.141" height="10.165" transform="translate(81.892 7.188) rotate(135)"/><rect class="b" width="10.141" height="10.165" transform="translate(26.767 32.725) rotate(135)"/></g></g></svg>