<?xml version="1.0" standalone="no"?>
<!DOCTYPE svg PUBLIC "-//W3C//DTD SVG 20010904//EN"
 "http://www.w3.org/TR/2001/REC-SVG-20010904/DTD/svg10.dtd">
<svg version="1.0" xmlns="http://www.w3.org/2000/svg"
 width="212.000000pt" height="212.000000pt" viewBox="0 0 212.000000 212.000000"
 preserveAspectRatio="xMidYMid meet">

<g transform="translate(0.000000,212.000000) scale(0.100000,-0.100000)"
fill="#008388" stroke="none">
<path d="M904 1783 c-256 -225 -427 -420 -505 -576 -70 -138 -81 -240 -42
-392 39 -158 167 -314 321 -393 45 -24 82 -41 82 -39 0 2 -12 27 -28 55 -18
33 -48 65 -88 95 -137 101 -217 240 -231 403 -11 132 52 272 205 454 118 141
381 386 404 377 7 -3 63 -50 123 -104 264 -239 415 -431 459 -582 56 -191 -43
-432 -226 -555 -33 -22 -56 -49 -77 -89 l-29 -56 26 10 c122 47 275 188 335
310 135 275 67 509 -243 833 -83 87 -337 321 -366 339 -5 3 -59 -37 -120 -90z"/>
<path d="M692 1278 c-15 -15 -15 -41 0 -56 9 -9 95 -12 324 -12 271 0 315 2
328 16 19 18 19 20 6 45 -10 18 -25 19 -328 19 -234 0 -321 -3 -330 -12z"/>
<path d="M993 1170 c-39 -16 -43 -40 -43 -244 l0 -196 -26 0 c-28 0 -65 -16
-76 -34 -14 -20 -8 -63 10 -79 15 -14 42 -17 158 -17 151 0 168 5 179 52 10
38 -31 78 -80 78 l-35 0 0 204 0 205 -26 20 c-30 23 -30 23 -61 11z"/>
<path d="M753 1113 c-50 -20 54 -158 113 -151 50 5 44 42 -17 104 -50 51 -67
59 -96 47z"/>
<path d="M1191 1066 c-61 -62 -67 -99 -17 -104 23 -3 38 6 77 44 49 48 60 79
37 102 -22 22 -43 13 -97 -42z"/>
<path d="M753 953 c-50 -20 54 -158 113 -151 50 5 44 42 -17 104 -50 51 -67
59 -96 47z"/>
<path d="M1191 906 c-61 -62 -67 -99 -17 -104 23 -3 38 6 77 44 49 48 60 79
37 102 -22 22 -43 13 -97 -42z"/>
<path d="M837 528 c-23 -82 29 -177 144 -269 l39 -31 61 59 c85 80 119 135
119 192 0 66 -11 78 -38 41 -12 -16 -22 -35 -22 -43 0 -19 -52 -96 -89 -131
l-31 -30 -41 40 c-54 52 -77 85 -83 119 -3 16 -16 40 -29 53 l-24 24 -6 -24z"/>
</g>
</svg>
