<svg xmlns="http://www.w3.org/2000/svg" width="51.373" height="51.373" viewBox="0 0 51.373 51.373"><defs><style>.a{fill:#0076a2;}</style></defs><g transform="translate(-627.321 -1411.318)"><path class="a" d="M46.243,270.17v-1.342a2.569,2.569,0,0,0-2.569-2.569H41.962a2.569,2.569,0,0,0-2.569,2.562c-1.683-.221-3.425-.393-5.137-.522v-1.184a2.569,2.569,0,0,0-2.568-2.569H29.975a2.569,2.569,0,0,0-2.569,2.569v.871q-.9-.014-1.712-.015t-1.712.015v-.871a2.569,2.569,0,0,0-2.569-2.569H19.7a2.569,2.569,0,0,0-2.568,2.569V268.3c-1.712.129-3.455.3-5.137.522a2.569,2.569,0,0,0-2.568-2.562H7.714a2.569,2.569,0,0,0-2.569,2.569v1.342c-3.067.9-5.137,2.133-5.137,3.8v6.85a1.706,1.706,0,0,0,.856,1.474v1.094a2.569,2.569,0,0,0,2.569,2.569H4.447a2.568,2.568,0,0,0,2.411,1.712H9.426a2.543,2.543,0,0,0,1.259-.343,2.564,2.564,0,0,0,2.165,1.2h3.425a2.54,2.54,0,0,0,1.26-.342,2.563,2.563,0,0,0,2.165,1.2h4.281a2.552,2.552,0,0,0,1.712-.668,2.552,2.552,0,0,0,1.712.668h4.281a2.564,2.564,0,0,0,2.165-1.2,2.54,2.54,0,0,0,1.26.342h3.425a2.564,2.564,0,0,0,2.165-1.2,2.542,2.542,0,0,0,1.259.343H44.53a2.568,2.568,0,0,0,2.411-1.712h1.014a2.569,2.569,0,0,0,2.568-2.569v-1.094a1.706,1.706,0,0,0,.856-1.474v-6.85c0-1.663-2.07-2.895-5.137-3.8Zm-5.137-1.342a.856.856,0,0,1,.856-.856h1.712a.856.856,0,0,1,.856.856v.894c-1.072-.248-2.226-.466-3.425-.654Zm-11.987-1.712a.857.857,0,0,1,.856-.856h1.712a.856.856,0,0,1,.856.856v1.068c-1.179-.071-2.329-.122-3.425-.156Zm-10.274,0a.856.856,0,0,1,.856-.856h1.712a.857.857,0,0,1,.856.856v.913c-1.1.034-2.246.085-3.425.156ZM6.858,268.828a.856.856,0,0,1,.856-.856H9.426a.856.856,0,0,1,.856.856v.24c-1.2.188-2.353.406-3.425.654Zm18.836.856c15.512,0,23.974,2.826,23.974,4.281v5.075a2.2,2.2,0,0,0-1.521-.572,2.548,2.548,0,0,0-1.527.513,3.339,3.339,0,0,0-3.04-1.69,4.163,4.163,0,0,0-3.073,1.366,3.66,3.66,0,0,0-3.3-1.743,4.649,4.649,0,0,0-3.533,1.627,4.024,4.024,0,0,0-3.694-2.007,5.138,5.138,0,0,0-4.281,2.3,5.138,5.138,0,0,0-4.281-2.3,4.023,4.023,0,0,0-3.7,2.01,4.649,4.649,0,0,0-3.534-1.627,3.66,3.66,0,0,0-3.3,1.74,4.163,4.163,0,0,0-3.07-1.362,3.339,3.339,0,0,0-3.043,1.69,2.545,2.545,0,0,0-1.527-.514,2.207,2.207,0,0,0-1.522.569v-5.075c0-1.455,8.462-4.281,23.974-4.281Zm-23.117,13.7V281.1c0-.153.031-.919.665-.919a1.255,1.255,0,0,1,1.047,1.364v2.7H3.433A.856.856,0,0,1,2.577,283.383Zm6.849,2.569H6.858A.856.856,0,0,1,6,285.1v-4.281a1.7,1.7,0,0,1,1.807-1.808,2.476,2.476,0,0,1,2.474,2.474V285.1a.856.856,0,0,1-.856.856Zm6.849.856H12.851a.856.856,0,0,1-.856-.856v-5.137a2.089,2.089,0,0,1,2.189-2.189,2.953,2.953,0,0,1,2.949,2.95v4.376A.856.856,0,0,1,16.276,286.808Zm7.706.856H19.7a.856.856,0,0,1-.856-.856v-5.993a2.453,2.453,0,0,1,2.568-2.569,3.425,3.425,0,0,1,3.425,3.425v5.137A.856.856,0,0,1,23.982,287.664Zm8.562-.856a.856.856,0,0,1-.856.856H27.406a.856.856,0,0,1-.856-.856v-5.137a3.425,3.425,0,0,1,3.425-3.425,2.453,2.453,0,0,1,2.568,2.569Zm6.849-.856a.856.856,0,0,1-.856.856H35.112a.856.856,0,0,1-.856-.856v-4.376a2.953,2.953,0,0,1,2.949-2.95,2.089,2.089,0,0,1,2.188,2.189Zm5.993-.856a.856.856,0,0,1-.856.856H41.962a.856.856,0,0,1-.856-.856v-3.615a2.476,2.476,0,0,1,2.474-2.474,1.7,1.7,0,0,1,1.807,1.808Zm3.425-1.712a.856.856,0,0,1-.856.856H47.1v-2.7a1.255,1.255,0,0,1,1.047-1.364c.634,0,.665.771.665.919Zm0,0" transform="translate(627.314 1173.314)"/><path class="a" d="M40.51,63.828l-.163.019a.673.673,0,0,0-.163.047.573.573,0,0,0-.147.066,1.338,1.338,0,0,0-.138.1.862.862,0,0,0-.278.6.879.879,0,0,0,.077.333.913.913,0,0,0,.818.556.868.868,0,0,0,.33-.086.84.84,0,0,0,.271-.2.885.885,0,0,0-.018-1.2A.861.861,0,0,0,40.51,63.828Zm0,0" transform="translate(591.676 1353.893)"/><path class="a" d="M.329,1.877a18.052,18.052,0,0,0,1.64,3.2.839.839,0,0,0,1.206.235A.882.882,0,0,0,3.4,4.14,16.385,16.385,0,0,1,1.926,1.26l-.27-.7a.857.857,0,0,0-1.6.615l.27.7Zm0,0" transform="translate(627.322 1411.31)"/><path class="a" d="M110.7,1.875l.271-.7a.857.857,0,0,0-1.6-.615l-.27.7a15.5,15.5,0,0,1-14.384,9.879H75.966A15.643,15.643,0,0,1,68.32,9.1c-.238-.129-.459-.286-.685-.428a.89.89,0,0,0-1.171.239.832.832,0,0,0,.244,1.2c.257.157.5.33.771.473a17.354,17.354,0,0,0,8.486,2.265H94.715A17.227,17.227,0,0,0,110.7,1.875Zm0,0" transform="translate(567.668 1411.31)"/><path class="a" d="M174.216,155.394a.856.856,0,0,0,.856-.856v-6.5l1.107,1.107a.856.856,0,0,0,1.211-1.211l-2.569-2.569c-.007-.008-.018-.01-.025-.017a.864.864,0,0,0-.252-.171.035.035,0,0,1-.022-.005.847.847,0,0,0-.27-.053.779.779,0,0,0-.085.005.8.8,0,0,0-.21.041.716.716,0,0,0-.086.03.851.851,0,0,0-.257.171l-2.569,2.569a.856.856,0,0,0,1.211,1.211l1.1-1.108v6.5A.856.856,0,0,0,174.216,155.394Zm0,0" transform="translate(473.655 1280.754)"/><path class="a" d="M276.617,155.394a.856.856,0,0,0,.856-.856v-6.5l1.107,1.107a.856.856,0,0,0,1.211-1.211l-2.568-2.569c-.008-.008-.018-.01-.026-.017a.862.862,0,0,0-.252-.171.036.036,0,0,1-.022-.005.845.845,0,0,0-.27-.053.787.787,0,0,0-.086.005.8.8,0,0,0-.21.041.737.737,0,0,0-.085.03.848.848,0,0,0-.257.171l-2.568,2.569a.856.856,0,0,0,1.211,1.211l1.1-1.108v6.5A.856.856,0,0,0,276.617,155.394Zm0,0" transform="translate(381.528 1280.754)"/><path class="a" d="M396.076,172.461a.856.856,0,0,0,.856-.856v-6.5l1.107,1.107a.856.856,0,0,0,1.211-1.211l-2.569-2.569c-.008-.008-.018-.01-.025-.017a.872.872,0,0,0-.252-.171.039.039,0,0,1-.023-.005.863.863,0,0,0-.269-.053.772.772,0,0,0-.085.005.813.813,0,0,0-.212.041c-.028.009-.056.017-.085.029a.859.859,0,0,0-.257.171l-2.569,2.569a.856.856,0,0,0,1.211,1.211l1.105-1.107v6.5a.856.856,0,0,0,.856.856Zm0,0" transform="translate(274.056 1265.399)"/><path class="a" d="M42.927,166.223a.857.857,0,0,0,1.211,0l1.107-1.107v6.5a.856.856,0,0,0,1.712,0v-6.5l1.107,1.107a.856.856,0,0,0,1.211-1.211l-2.569-2.569c-.007-.008-.018-.01-.025-.017a.872.872,0,0,0-.252-.171.04.04,0,0,1-.023-.005.827.827,0,0,0-.269-.052.629.629,0,0,0-.085,0,.92.92,0,0,0-.554.24l-2.569,2.568a.856.856,0,0,0,0,1.213Zm0,0" transform="translate(588.927 1265.393)"/></g></svg>