<svg xmlns="http://www.w3.org/2000/svg" width="51.957" height="51.96" viewBox="0 0 51.957 51.96"><defs><style>.a{fill:#0076a2;}</style></defs><path class="a" d="M44.965,4.473a1.7,1.7,0,0,0-2.338,0C40.632,6.367,36,11.33,36,16.479a8.07,8.07,0,0,0,7.794,8.306,8.07,8.07,0,0,0,7.794-8.306C51.588,11.33,46.956,6.367,44.965,4.473Zm-1.171,18.58a6.341,6.341,0,0,1-6.062-6.574c0-4.6,4.658-9.393,6.039-10.751,1.427,1.358,6.085,6.147,6.085,10.751A6.338,6.338,0,0,1,43.794,23.053Z" transform="translate(-5.68 -0.537)"/><path class="a" d="M43.673,9.688c-2.123,2.491-4.417,6.044-3.414,9.155a.866.866,0,1,0,1.645-.532c-.772-2.4,1.446-5.578,3.085-7.5a.867.867,0,0,0-1.318-1.126Z" transform="translate(-6.218 -1.257)"/><path class="a" d="M39.1,0a13.841,13.841,0,0,0-8.047,25.114H22.648a1.732,1.732,0,0,0-1.732,1.732v1.732a1.732,1.732,0,0,0,1.732,1.732v3.309a9.526,9.526,0,0,1-6.709-13.78l1.483,1.482-.484.484a.866.866,0,0,0,1.225,1.225l1.091-1.091.687.687a2.6,2.6,0,0,0,3.679-3.68l-.686-.686,1.094-1.094A.866.866,0,0,0,22.8,15.94l-.484.484L11.664,5.761a1.732,1.732,0,0,0-1.672-.442L6.15,1.478A.866.866,0,0,0,4.926.254L1.252,3.928A.866.866,0,1,0,2.477,5.153L6.317,8.993a1.709,1.709,0,0,0,.443,1.673l2.918,2.916a18.07,18.07,0,0,0-3.42,12.174.866.866,0,1,0,1.727-.142,16.34,16.34,0,0,1,2.933-10.793l.514.514a.866.866,0,1,0,1.223-1.226L7.987,9.439l2.451-2.45L21.089,17.652,18.647,20.1l-3.291-3.284a.866.866,0,0,0-1.223,1.226l.533.533A11.233,11.233,0,0,0,21.746,35.2l-3.065,4.452A16.67,16.67,0,0,1,9.823,31.88a.9.9,0,0,0-1.152-.368.839.839,0,0,0-.378,1.179,18.39,18.39,0,0,0,9.386,8.431L14.4,45.9H12.429a1.725,1.725,0,0,0-1.608,1.089l-1.039,2.6A1.732,1.732,0,0,0,11.39,51.96H32.174a1.732,1.732,0,0,0,1.608-2.375l-1.039-2.6A1.723,1.723,0,0,0,31.135,45.9H29.576V41.677a17.967,17.967,0,0,0,2.843-1.108,2.588,2.588,0,0,0,1.147-3.45L32.042,33.99a2.6,2.6,0,0,0-3.459-1.2c-.1.05-.216.094-.325.142a3.583,3.583,0,0,0-.415-.315V30.31H36.5a1.732,1.732,0,0,0,1.732-1.732v-.91A13.847,13.847,0,1,0,39.1,0ZM4.926,2.7,8.6,6.375,7.373,7.6,3.7,3.928ZM22.394,21.4a.879.879,0,0,1-1.227,0l-.687-.688,1.23-1.23.685.686a.872.872,0,0,1,0,1.231Zm9.781,28.826H11.39l1.039-2.6H31.135ZM16.5,45.9l7.748-11.269a1.973,1.973,0,0,1,3.6,1.116V45.9ZM30.487,34.751l1.522,3.124a.866.866,0,0,1-.357,1.141,16.43,16.43,0,0,1-2.078.831c0-4.271.087-4.577-.272-5.478a.866.866,0,0,1,1.185.382Zm-4.375-2.685c-.081-.005-.158-.024-.239-.024a3.689,3.689,0,0,0-1.493.321V30.31h1.732ZM36.5,28.578H22.648V26.846c15.98,0,9.806-.159,13.856.613Zm2.6-2.6A12.124,12.124,0,1,1,51.226,13.856,12.124,12.124,0,0,1,39.1,25.98Z" transform="translate(-0.988 0)"/><path class="a" d="M8.687,34.325a.866.866,0,1,1,.866-.866A.866.866,0,0,1,8.687,34.325Z" transform="translate(-1.903 -4.368)"/><circle class="a" cx="0.866" cy="0.866" r="0.866" transform="translate(23.392 37.238)"/><circle class="a" cx="0.866" cy="0.866" r="0.866" transform="translate(36.382 19.052)"/><path class="a" d="M10.642,35.844l-1.53.811a18.027,18.027,0,0,1-2.039-6.937L8.8,29.58a16.274,16.274,0,0,0,1.842,6.264Z" transform="translate(-1.803 -3.964)"/></svg>