<svg xmlns="http://www.w3.org/2000/svg" width="122.465" height="47.094" viewBox="0 0 122.465 47.094"><defs><style>.a{fill:#00ada4;}.b{fill:#383838;}</style></defs><g transform="translate(61.232 23.547)"><g transform="translate(-61.232 -23.547)"><path class="a" d="M139.959,130.148l-.237,3.347a1.185,1.185,0,0,1,.54.933l2.1.126a1.259,1.259,0,0,1,.533-.814l-2.591-3.783A1.177,1.177,0,0,1,139.959,130.148ZM139.537,139a2.8,2.8,0,0,1,.874.355c.918-1.162,1.747-2.347,2.5-3.51a1.259,1.259,0,0,1-.57-.985l-2.1-.126a1.184,1.184,0,0,1-.644.829Zm1.244-9.833a1.178,1.178,0,0,1-.252.592l2.643,3.85a1.251,1.251,0,0,1,1.059.081c.533-.918,1.014-1.821,1.466-2.68a1.925,1.925,0,0,1-.9-1.629.993.993,0,0,1,.007-.148Zm6.012,10.225a1.185,1.185,0,0,1,1.525-1.074c.459-.97.888-1.977,1.281-3.043a1.035,1.035,0,0,1-.274-.193l-2.036,1.725a.666.666,0,0,1-.1.814l.392.637-.252.155-.392-.637a.666.666,0,0,1-.8-.963l-1.584-1.207a1.252,1.252,0,0,1-.948.437h-.118a44.571,44.571,0,0,1-2.606,3.672,2.82,2.82,0,0,1,.629.888Zm-.563-8.145c-.474.918-.992,1.881-1.57,2.865a1.251,1.251,0,0,1,.059,1.259l1.622,1.229a.666.666,0,0,1,.733,0l2.066-1.747a1.037,1.037,0,0,1,.207-1.266l-1.488-2.651a1.925,1.925,0,0,1-1.622.311Zm-.874,12.106c.689-.985,1.311-1.962,1.881-2.969a1.185,1.185,0,0,1-.429-.7l-5.2,1.192a2.814,2.814,0,0,1-4.746,2.777,39.6,39.6,0,0,1-8.655,4.835,14.4,14.4,0,0,0,7.863,2.925C137.738,150.347,142.935,146.815,145.357,143.357Zm-9.233-1.607a2.814,2.814,0,0,1,2.814-2.814l.3.015.059-3.295-.215.022a1.185,1.185,0,1,1,.348-2.318l.23-3.169h-.126a27.789,27.789,0,0,1-16.57,10.44,14.475,14.475,0,0,0,4.724,7.449,39.742,39.742,0,0,0,8.826-4.894A2.8,2.8,0,0,1,136.124,141.751Zm14.816-8.6-.148.474a1.037,1.037,0,0,1-.6,1.747c-.422,1.148-.874,2.221-1.37,3.265a1.185,1.185,0,0,1-.851,2.006l-.185-.015a36.039,36.039,0,0,1-1.94,3.073c-2.229,3.169-6.575,6.308-8.722,7.745a14.484,14.484,0,0,0,13.816-18.3Zm-2.3-3.761a1.918,1.918,0,0,1-.555,1.355l1.5,2.68a1.029,1.029,0,0,1,.674-.081q.185-.585.363-1.192a14.461,14.461,0,0,0-2.6-4.517l-.118.252a1.918,1.918,0,0,1,.733,1.5Zm-9.7.607a1.185,1.185,0,1,1,1.407-1.9,33.094,33.094,0,0,0,2.51-4.346,14.468,14.468,0,0,0-20.021,16.3,27.1,27.1,0,0,0,16.1-10.062Zm1.844-1.125,4.057.074a1.925,1.925,0,0,1,2.547-1.355l.215-.437a14.52,14.52,0,0,0-4.206-3.147,33.7,33.7,0,0,1-2.68,4.605,1.177,1.177,0,0,1,.067.252Z" transform="translate(-113.429 -113.427)"/><path class="b" d="M189.292,5.886a17.518,17.518,0,0,1,9.877,3.036h8.611a23.55,23.55,0,0,0-27.654-7.108q-.57.244-1.125.511V9.211a17.526,17.526,0,0,1,10.292-3.324Z" transform="translate(-165.746 0.04)"/><path class="b" d="M77.158,505.072A17.541,17.541,0,0,1,65.9,501h-8a23.54,23.54,0,0,0,28.424,8.144q.8-.341,1.57-.733v-7A17.533,17.533,0,0,1,77.158,505.072Z" transform="translate(-53.612 -463.902)"/><path class="b" d="M5.913,79.843A17.533,17.533,0,0,1,9.689,68.952V60.8A23.534,23.534,0,0,0,1.841,89.01c.118.281.244.555.37.829H9.03a17.518,17.518,0,0,1-3.117-10Z" transform="translate(0.011 -56.295)"/><path class="b" d="M507.295,180.032a17.525,17.525,0,0,1-3.332,10.3v8.418a23.548,23.548,0,0,0,7.4-27.884q-.407-.955-.889-1.866H503.4A17.54,17.54,0,0,1,507.295,180.032Z" transform="translate(-466.127 -156.484)"/><g transform="translate(55.302 4.682)"><path class="b" d="M752.327,81.248c.57,2.5,2.362,3.591,5.242,3.591s4.1-1.133,4.1-2.954c0-2.029-1.2-2.9-5.457-3.895-6.775-1.584-8.448-4.05-8.448-7.412,0-4.339,3.243-7.278,9.137-7.278,6.6,0,9.24,3.554,9.6,7.189h-5.427c-.259-1.533-1.1-3.191-4.317-3.191-2.184,0-3.5.9-3.5,2.665s1.059,2.429,5.079,3.361c7.234,1.7,8.826,4.4,8.826,7.908,0,4.546-3.436,7.656-10.018,7.656-6.316,0-9.64-3.11-10.24-7.648Z" transform="translate(-746.9 -63.293)"/><path class="b" d="M1044.9,68.2h10.869c6.012,0,8.293,3.132,8.293,6.368a5.679,5.679,0,0,1-3.169,5.4,5.925,5.925,0,0,1,3.88,5.672c0,4.257-3.347,7.449-8.633,7.449H1044.9Zm10.255,9.81c2.555,0,3.613-1.148,3.613-2.9s-1.384-2.762-3.458-2.762h-5.124V78.01Zm-4.976,10.914h4.857c2.91,0,4.228-1.214,4.228-3.473,0-2.007-1.3-3.287-4.257-3.287h-4.828Z" transform="translate(-1022.836 -67.83)"/><path class="b" d="M1352.138,75.92c0,6.923-4.161,12.883-12.239,12.883-7.811,0-11.9-5.672-11.9-12.8,0-7.241,4.517-12.8,12.239-12.8C1347.525,63.207,1352.138,68.309,1352.138,75.92Zm-18.577-.022c0,4.857,2.132,8.53,6.545,8.53,4.783,0,6.479-4.006,6.479-8.441,0-4.709-1.925-8.4-6.568-8.4C1335.523,67.583,1333.561,71.056,1333.561,75.9Z" transform="translate(-1284.975 -63.2)"/></g><g transform="translate(56.672 35.639)"><path class="b" d="M765.4,483.1h3.517a4.165,4.165,0,0,1,4.383,4.479c0,2.717-1.7,4.694-4.45,4.694H765.4Zm1.725,7.767h1.636c1.9,0,2.762-1.392,2.762-3.273,0-1.607-.8-3.088-2.747-3.088h-1.651Z" transform="translate(-765.4 -482.967)"/><path class="b" d="M934.018,483.1v9.174H932.3V483.1Z" transform="translate(-919.943 -482.967)"/><path class="b" d="M1023.671,490.607H1022.4a4.747,4.747,0,0,1-.141-1.022,3.124,3.124,0,0,1-2.74,1.163c-2.658,0-4.117-2.014-4.117-4.62,0-2.754,1.57-4.827,4.42-4.827,2.281,0,3.658,1.273,3.894,2.865H1022a2.042,2.042,0,0,0-2.2-1.488c-1.97,0-2.614,1.622-2.614,3.384s.7,3.31,2.6,3.31,2.2-1.244,2.2-2.31v-.089h-2.206v-1.436h3.895Z" transform="translate(-996.89 -481.3)"/><path class="b" d="M1192.918,483.1v9.174H1191.2V483.1Z" transform="translate(-1159.674 -482.967)"/><path class="b" d="M1271.551,484.522H1268.7V483.1h7.419v1.429h-2.843v7.745h-1.725Z" transform="translate(-1231.435 -482.967)"/><path class="b" d="M1397.9,489.934l-.807,2.34h-1.7l3.169-9.174h2.154l3.3,9.174H1402.2l-.844-2.34Zm3.073-1.429c-.726-2.1-1.163-3.354-1.377-4.132h-.015c-.222.859-.711,2.34-1.3,4.132Z" transform="translate(-1348.754 -482.967)"/><path class="b" d="M1564.708,483.1h1.717v7.745h4.642l-.207,1.429h-6.16Z" transform="translate(-1505.519 -482.967)"/></g></g></g></svg>