<svg xmlns="http://www.w3.org/2000/svg" width="91.015" height="35" viewBox="0 0 91.015 35"><defs><style>.a{fill:#f4f4f4;}</style></defs><g transform="translate(45.508 17.5)"><g transform="translate(-45.508 -17.5)"><path class="a" d="M135.475,128.184l-.176,2.487a.88.88,0,0,1,.4.693l1.557.094a.935.935,0,0,1,.4-.605l-1.926-2.812A.875.875,0,0,1,135.475,128.184Zm-.314,6.581a2.08,2.08,0,0,1,.649.264c.682-.864,1.3-1.744,1.86-2.608a.935.935,0,0,1-.424-.732l-1.563-.094a.88.88,0,0,1-.479.616Zm.924-7.308a.875.875,0,0,1-.187.44l1.964,2.861a.93.93,0,0,1,.787.061c.4-.682.754-1.354,1.09-1.992a1.431,1.431,0,0,1-.666-1.211.737.737,0,0,1,.006-.11Zm4.468,7.6a.88.88,0,0,1,1.134-.8c.341-.721.66-1.469.952-2.262a.771.771,0,0,1-.2-.143l-1.513,1.282a.5.5,0,0,1-.072.605l.292.473-.187.116-.292-.473a.5.5,0,0,1-.594-.715l-1.178-.9a.93.93,0,0,1-.7.325H138.1a33.12,33.12,0,0,1-1.937,2.729,2.1,2.1,0,0,1,.468.66ZM140.136,129c-.352.682-.737,1.4-1.167,2.13a.93.93,0,0,1,.044.935l1.205.913a.5.5,0,0,1,.545,0l1.535-1.3a.77.77,0,0,1,.154-.941l-1.106-1.97a1.431,1.431,0,0,1-1.205.231Zm-.649,9c.512-.732.974-1.458,1.4-2.207a.88.88,0,0,1-.319-.517l-3.863.886a2.091,2.091,0,0,1-3.527,2.064,29.428,29.428,0,0,1-6.433,3.593,10.7,10.7,0,0,0,5.844,2.174C133.825,143.2,137.687,140.571,139.487,138Zm-6.862-1.194a2.091,2.091,0,0,1,2.091-2.091l.226.011.044-2.449-.16.017a.88.88,0,1,1,.259-1.722l.171-2.355h-.094a20.652,20.652,0,0,1-12.315,7.759,10.758,10.758,0,0,0,3.511,5.536,29.536,29.536,0,0,0,6.559-3.637A2.08,2.08,0,0,1,132.625,136.807Zm11.011-6.389-.11.352a.77.77,0,0,1-.446,1.3c-.314.853-.649,1.651-1.018,2.427a.88.88,0,0,1-.633,1.491l-.138-.011a26.775,26.775,0,0,1-1.442,2.284,27.16,27.16,0,0,1-6.482,5.756,10.764,10.764,0,0,0,10.268-13.6Zm-1.711-2.8a1.425,1.425,0,0,1-.413,1.007l1.117,1.992a.765.765,0,0,1,.5-.061q.138-.435.27-.886a10.747,10.747,0,0,0-1.931-3.357l-.088.187a1.425,1.425,0,0,1,.545,1.112Zm-7.209.451a.88.88,0,1,1,1.046-1.414,24.6,24.6,0,0,0,1.865-3.23,10.753,10.753,0,0,0-14.879,12.117,20.138,20.138,0,0,0,11.968-7.478Zm1.37-.836,3.015.055a1.431,1.431,0,0,1,1.893-1.007l.16-.325a10.791,10.791,0,0,0-3.126-2.339,25.04,25.04,0,0,1-1.992,3.423.875.875,0,0,1,.05.187Z" transform="translate(-115.759 -115.757)"/><path class="a" d="M186.649,4.364a13.019,13.019,0,0,1,7.341,2.256h6.4a17.5,17.5,0,0,0-20.553-5.283q-.424.182-.836.38V6.835a13.025,13.025,0,0,1,7.649-2.471Z" transform="translate(-169.15 0.04)"/><path class="a" d="M72.213,504.026A13.036,13.036,0,0,1,63.848,501H57.9a17.5,17.5,0,0,0,21.125,6.053q.594-.253,1.167-.545v-5.2A13.03,13.03,0,0,1,72.213,504.026Z" transform="translate(-54.713 -473.429)"/><path class="a" d="M4.392,74.953A13.03,13.03,0,0,1,7.2,66.858V60.8A17.49,17.49,0,0,0,1.365,81.765c.088.209.182.413.275.616H6.708a13.019,13.019,0,0,1-2.317-7.429Z" transform="translate(0.011 -57.452)"/><path class="a" d="M506.294,177.2a13.025,13.025,0,0,1-2.476,7.654v6.257a17.5,17.5,0,0,0,5.5-20.723q-.3-.71-.66-1.387H503.4A13.036,13.036,0,0,1,506.294,177.2Z" transform="translate(-475.699 -159.698)"/><g transform="translate(41.1 3.48)"><path class="a" d="M750.933,76.639c.424,1.854,1.755,2.669,3.9,2.669s3.048-.842,3.048-2.2c0-1.508-.891-2.157-4.055-2.894-5.035-1.178-6.279-3.01-6.279-5.508,0-3.225,2.41-5.409,6.79-5.409,4.908,0,6.867,2.641,7.132,5.343h-4.034c-.193-1.139-.82-2.372-3.208-2.372-1.623,0-2.6.671-2.6,1.981s.787,1.8,3.775,2.5c5.376,1.266,6.559,3.269,6.559,5.877,0,3.379-2.553,5.69-7.445,5.69-4.694,0-7.164-2.311-7.61-5.684Z" transform="translate(-746.9 -63.295)"/><path class="a" d="M1044.9,68.2h8.078c4.468,0,6.163,2.328,6.163,4.732a4.22,4.22,0,0,1-2.355,4.011,4.4,4.4,0,0,1,2.884,4.215c0,3.164-2.487,5.536-6.416,5.536H1044.9Zm7.621,7.291c1.9,0,2.685-.853,2.685-2.152s-1.029-2.053-2.57-2.053h-3.808v4.2Zm-3.7,8.111h3.61c2.163,0,3.142-.9,3.142-2.581,0-1.491-.963-2.443-3.164-2.443h-3.588Z" transform="translate(-1028.502 -67.925)"/><path class="a" d="M1345.939,72.654c0,5.145-3.093,9.575-9.1,9.575-5.805,0-8.843-4.215-8.843-9.514,0-5.382,3.357-9.514,9.1-9.514C1342.51,63.206,1345.939,67,1345.939,72.654Zm-13.806-.017c0,3.61,1.585,6.339,4.864,6.339,3.555,0,4.815-2.977,4.815-6.273,0-3.5-1.431-6.246-4.881-6.246C1333.591,66.458,1332.133,69.038,1332.133,72.637Z" transform="translate(-1296.024 -63.2)"/></g><g transform="translate(42.118 26.487)"><path class="a" d="M765.4,483.1h2.614a3.1,3.1,0,0,1,3.258,3.329,3.218,3.218,0,0,1-3.307,3.489H765.4Zm1.282,5.772H767.9c1.409,0,2.053-1.035,2.053-2.432a2.028,2.028,0,0,0-2.042-2.295h-1.227Z" transform="translate(-765.4 -483.001)"/><path class="a" d="M933.577,483.1v6.818H932.3V483.1Z" transform="translate(-923.116 -483.001)"/><path class="a" d="M1021.547,488.217h-.947a3.55,3.55,0,0,1-.1-.759,2.321,2.321,0,0,1-2.036.864c-1.975,0-3.059-1.5-3.059-3.434,0-2.047,1.167-3.588,3.285-3.588a2.65,2.65,0,0,1,2.894,2.13H1020.3a1.517,1.517,0,0,0-1.634-1.106c-1.464,0-1.943,1.205-1.943,2.515s.517,2.46,1.931,2.46,1.634-.924,1.634-1.717v-.066h-1.64v-1.068h2.894Z" transform="translate(-1001.643 -481.3)"/><path class="a" d="M1192.477,483.1v6.818H1191.2V483.1Z" transform="translate(-1167.77 -483.001)"/><path class="a" d="M1270.818,484.157H1268.7V483.1h5.514v1.062H1272.1v5.756h-1.282Z" transform="translate(-1241.005 -483.001)"/><path class="a" d="M1397.26,488.179l-.6,1.739h-1.26l2.355-6.818h1.6l2.449,6.818h-1.348l-.627-1.739Zm2.284-1.062c-.539-1.563-.864-2.493-1.024-3.071h-.011c-.165.638-.528,1.739-.963,3.071Z" transform="translate(-1360.733 -483.001)"/><path class="a" d="M1564.705,483.1h1.277v5.756h3.45l-.154,1.062H1564.7Z" transform="translate(-1520.717 -483.001)"/></g></g></g></svg>